<svg width="484" height="150" viewBox="0 0 484 150" fill="none" xmlns="http://www.w3.org/2000/svg">
<path d="M334 75C334 33.5786 367.579 0 409 0C450.421 0 484 33.5786 484 75V145C484 147.761 481.761 150 479 150H339C336.239 150 334 147.761 334 145V75Z" fill="url(#paint0_linear_12_7)"/>
<path d="M167 75C167 33.5786 200.579 0 242 0C283.421 0 317 33.5786 317 75C317 116.421 283.421 150 242 150C200.579 150 167 116.421 167 75Z" fill="url(#paint1_linear_12_7)"/>
<path d="M0 5C0 2.23858 2.23858 0 5 0H137.929C142.383 0 144.614 5.38571 141.464 8.53553L8.53554 141.464C5.38572 144.614 0 142.383 0 137.929V5Z" fill="url(#paint2_linear_12_7)"/>
<path d="M70 110C70 87.9086 87.9086 70 110 70C132.091 70 150 87.9086 150 110C150 132.091 132.091 150 110 150C87.9086 150 70 132.091 70 110Z" fill="url(#paint3_linear_12_7)"/>
<defs>
<linearGradient id="paint0_linear_12_7" x1="-4.4135e-07" y1="27" x2="496.012" y2="111.434" gradientUnits="userSpaceOnUse">
<stop stop-color="#66B9DD"/>
<stop offset="0.34375" stop-color="#7B78EB"/>
<stop offset="0.661458" stop-color="#CB92DB"/>
<stop offset="1" stop-color="#E27294"/>
</linearGradient>
<linearGradient id="paint1_linear_12_7" x1="-4.4135e-07" y1="27" x2="496.012" y2="111.434" gradientUnits="userSpaceOnUse">
<stop stop-color="#66B9DD"/>
<stop offset="0.34375" stop-color="#7B78EB"/>
<stop offset="0.661458" stop-color="#CB92DB"/>
<stop offset="1" stop-color="#E27294"/>
</linearGradient>
<linearGradient id="paint2_linear_12_7" x1="-4.4135e-07" y1="27" x2="496.012" y2="111.434" gradientUnits="userSpaceOnUse">
<stop stop-color="#66B9DD"/>
<stop offset="0.34375" stop-color="#7B78EB"/>
<stop offset="0.661458" stop-color="#CB92DB"/>
<stop offset="1" stop-color="#E27294"/>
</linearGradient>
<linearGradient id="paint3_linear_12_7" x1="-4.4135e-07" y1="27" x2="496.012" y2="111.434" gradientUnits="userSpaceOnUse">
<stop stop-color="#66B9DD"/>
<stop offset="0.34375" stop-color="#7B78EB"/>
<stop offset="0.661458" stop-color="#CB92DB"/>
<stop offset="1" stop-color="#E27294"/>
</linearGradient>
</defs>
</svg>
