<?xml version="1.0" encoding="utf-8"?>
<!-- Generator: Adobe Illustrator 24.2.3, SVG Export Plug-In . SVG Version: 6.00 Build 0)  -->
<svg version="1.1" id="Layer_1" xmlns="http://www.w3.org/2000/svg" xmlns:xlink="http://www.w3.org/1999/xlink" x="0px" y="0px"
	 viewBox="0 0 512 512" style="enable-background:new 0 0 512 512;" xml:space="preserve">
<style type="text/css">
	.st0{fill:#2C2F35;}
	.st1{fill:#F7F7F7;}
	.st2{fill:none;stroke:url(#SVGID_1_);stroke-width:6;stroke-miterlimit:10;}
	.st3{fill:none;stroke:url(#SVGID_2_);stroke-width:6;stroke-miterlimit:10;}
</style>
<path class="st0" d="M26.2,6h459.5c11.2,0,20.2,9.1,20.2,20.2v459.5c0,11.2-9.1,20.2-20.2,20.2H26.2C15.1,506,6,496.9,6,485.8V26.2
	C6,15.1,15.1,6,26.2,6z"/>
<path class="st1" d="M63.5,74.9c0-6.3,5.1-11.4,11.4-11.4c0,0,0,0,0,0H378c6.3,0,11.4,5.1,11.4,11.4c0,3-1.2,5.9-3.4,8.1L83,386
	c-4.4,4.5-11.6,4.5-16.1,0.1c-2.2-2.1-3.4-5-3.4-8.1V74.9z"/>
<path class="st1" d="M266.1,357.3c0-50.4,40.8-91.2,91.2-91.2s91.2,40.8,91.2,91.2s-40.8,91.2-91.2,91.2l0,0
	C306.9,448.5,266.1,407.7,266.1,357.3z"/>
<g>
	<linearGradient id="SVGID_1_" gradientUnits="userSpaceOnUse" x1="-1084.7004" y1="760.8895" x2="-761.2576" y2="437.4467">
		<stop  offset="0" style="stop-color:#FFFFFF;stop-opacity:0.1"/>
		<stop  offset="1" style="stop-color:#FFFFFF"/>
	</linearGradient>
	<path class="st2" d="M-1010.1,523.4c0-6.3,5.1-11.4,11.4-11.4c0,0,0,0,0,0h303.1c6.3,0,11.4,5.1,11.4,11.4c0,3-1.2,5.9-3.4,8.1
		l-303,303c-4.4,4.5-11.6,4.5-16.1,0.1c-2.2-2.1-3.4-5-3.4-8.1V523.4z"/>
	<linearGradient id="SVGID_2_" gradientUnits="userSpaceOnUse" x1="-782.9565" y1="872.4095" x2="-649.7376" y2="739.1906">
		<stop  offset="0" style="stop-color:#FFFFFF;stop-opacity:0.1"/>
		<stop  offset="1" style="stop-color:#FFFFFF"/>
	</linearGradient>
	<path class="st3" d="M-807.5,805.8c0-50.4,40.8-91.2,91.2-91.2c50.4,0,91.2,40.8,91.2,91.2c0,50.4-40.8,91.2-91.2,91.2l0,0
		C-766.7,897-807.5,856.2-807.5,805.8z"/>
</g>
</svg>
